<svg xmlns="http://www.w3.org/2000/svg" height="493.82" viewBox="227.439 27.182 499.061 493.824" width="499.06"><path d="M723.88 274.1c0 136.36-110.55 246.9-246.92 246.9-136.34 0-246.9-110.55-246.9-246.9 0-136.37 110.56-246.92 246.9-246.92 136.37.002 246.92 110.55 246.92 246.92zM477 49.88c-123.86 0-224.22 100.4-224.22 224.22 0 123.82 100.37 224.2 224.22 224.2 123.8 0 224.2-100.4 224.2-224.2C701.17 150.27 600.8 49.88 477 49.88zm-73.3 69.136c-35.672 0-64.602 28.93-64.602 64.574 0 35.672 28.93 64.602 64.602 64.602 35.644 0 64.58-28.93 64.58-64.602 0-35.65-28.94-64.57-64.58-64.57zm134.2 188.87c-16.19 0-29.31 13.115-29.31 29.288s13.127 29.288 29.31 29.288c16.174 0 29.277-13.12 29.277-29.288 0-16.18-13.1-29.3-29.28-29.3zm70.68-147.7c-23.273 0-42.123 18.877-42.123 42.117 0 23.263 18.85 42.124 42.123 42.124 23.24 0 42.123-18.86 42.123-42.124.01-23.24-18.88-42.12-42.12-42.12zM330.3 298.396c-12.6 0-22.803 10.226-22.803 22.81 0 12.59 10.203 22.8 22.803 22.8 12.628 0 22.826-10.22 22.826-22.8-.01-12.58-10.2-22.8-22.83-22.8zm124.6 80.1c-27.3 0-49.46 22.153-49.46 49.47 0 27.3 22.16 49.46 49.46 49.46 27.328 0 49.458-22.16 49.458-49.46 0-27.32-22.13-49.47-49.46-49.47z" fill="#28537b"/></svg>