<svg xmlns="http://www.w3.org/2000/svg" height="560" viewBox="224.298 0 518.761 560" width="518.76" fill="#28537b"><path d="M483.8 30.162c51.486 0 100.76 19.14 138.66 53.895 37.682 34.563 61.084 81.513 65.788 132.18l.112 1.395.274 1.395c.33 1.97.55 3.746.55 5.443v163.27c0 20.508-17.556 45.612-36.697 52.556-.55.163-53.485 18.268-168.68 18.268-115.23 0-168.16-18.1-168.55-18.2-19.275-7-36.832-32.1-36.832-52.612v-163.3c0-1.697.2-3.472.55-5.443l.274-1.395.112-1.394c4.732-50.67 28.084-97.62 65.8-132.18 37.93-34.748 87.18-53.888 138.66-53.888m0-30.162c-122.63 0-223.33 93.733-234.47 213.44-.655 3.584-1.064 7.274-1.064 11.02V387.7c0 33.197 25.514 69.62 56.7 80.938 0 0 55.154 20.07 178.83 20.07s178.85-20.07 178.85-20.07c31.17-11.318 56.655-47.74 56.655-80.938V224.44c0-3.747-.38-7.437-1.042-11.02C707.138 93.7 606.458-.02 483.818-.02zm-.13 418.65c-86.515 0-124.58-9.8-126.16-10.17-24.662-6.507-43.993-31.556-43.993-57.092v-102.43c0-26.606 21.655-48.233 48.26-48.233h244.07c26.577 0 48.232 21.627 48.232 48.233v102.43c0 25.542-19.303 50.585-43.97 57.042-1.64.43-39.93 10.22-126.44 10.22zm-121.9-193.8c-13.317 0-24.147 10.83-24.147 24.12v102.43c0 14.33 12.168 30.078 26.03 33.74.33.112 37.218 9.408 120 9.408 82.852 0 119.93-9.353 120.3-9.46 13.837-3.6 25.98-19.36 25.98-33.7V248.94c0-13.3-10.83-24.12-24.12-24.12H361.78zM506.4 343.55c-5.634-5.908 7.957-28.112 30.436-49.492 22.423-21.4 45.226-33.987 50.86-28.057s4.373 34.646-21.274 59.12c-25.66 24.44-54.37 24.33-60.03 18.43zm52.2 14.05c-2.57-2.733 3.662-12.853 13.888-22.585 10.226-9.8 20.62-15.53 23.24-12.796 2.57 2.682 1.972 15.803-9.732 26.958s-24.83 11.1-27.4 8.42z"/><path d="M239.4 414.1c-8.34 0-15.092-6.78-15.092-15.092v-154.63a15.092 15.092 0 1 1 30.184 0v154.63c0 8.3-6.75 15.1-15.1 15.1zm488.57 0c-8.3 0-15.04-6.78-15.04-15.092v-154.63c0-8.34 6.726-15.092 15.04-15.092a15.07 15.07 0 0 1 15.092 15.092v154.63a15.11 15.11 0 0 1-15.1 15.1zM489.94 560c-125.94 0-183.67-20.45-186.08-21.33-10.965-3.993-16.6-16.134-12.605-27.07a21.07 21.07 0 0 1 26.958-12.634c.7.218 54.606 18.8 171.72 18.8 117.28 0 171.15-18.648 171.7-18.8 10.937-3.937 23.02 1.803 26.958 12.74s-1.696 22.97-12.634 26.958c-2.35.88-60.1 21.33-186.02 21.33zm-72.68-422.63c11.647 0 21.1 9.436 21.1 21.112 0 11.648-9.458 21.112-21.1 21.112s-21.112-9.458-21.112-21.112c0-11.67 9.47-21.1 21.1-21.1zm-53.54-.02c11.676 0 21.134 9.458 21.134 21.134 0 11.648-9.458 21.112-21.134 21.112-11.648 0-21.112-9.458-21.112-21.112.01-11.67 9.46-21.13 21.1-21.13z"/></svg>