<svg xmlns="http://www.w3.org/2000/svg" height="560" viewBox="196.5 0 563.535 560" width="563.54" fill="#28537b"><path d="M428.2 475.58c-27.23 0-63.572-19.425-94.838-50.7-20.802-20.802-36.727-44.252-44.847-66.034-9.23-24.768-7.5-45.243 4.912-57.633 7.035-7.047 17-10.757 28.84-10.757 27.23 0 63.572 19.425 94.84 50.7 20.8 20.802 36.727 44.252 44.847 66.033 9.228 24.77 7.5 45.244-4.912 57.634-7.04 7.03-17 10.76-28.84 10.76zm-105.92-161.8c-5.588 0-9.73 1.317-12.343 3.92-5.402 5.4-5.238 17.744.455 32.993 6.965 18.713 20.988 39.188 39.48 57.68 30.298 30.3 61.18 43.855 78.342 43.855 5.588 0 9.73-1.318 12.343-3.92 5.402-5.402 5.238-17.745-.455-32.994-6.965-18.713-20.988-39.188-39.48-57.68-30.3-30.28-61.17-43.85-78.33-43.85zm177.52 61.58a11.64 11.64 0 0 1-8.248-3.418c-4.562-4.562-4.562-11.936 0-16.497 3.42-3.418 3.477-11.655.14-21.502-4.352-12.868-14.022-27.416-26.518-39.9-20.02-20.03-40.997-29-52.896-29-2.695 0-6.358.455-8.506 2.613-4.538 4.55-11.888 4.562-16.46.046l-.968-.957a11.71 11.71 0 0 1-3.465-8.26 11.62 11.62 0 0 1 3.418-8.284l89.506-89.506c1.703-1.704 3.885-2.824 6.22-3.244 5.495-3.453 12.203-5.25 19.763-5.25 20.697 0 47.297 13.732 69.382 35.83 15.18 15.167 26.577 32.55 32.13 48.93 6.476 19.145 4.434 35.304-5.763 45.488l-89.437 89.448c-.012.012-.023.035-.047.047a11.63 11.63 0 0 1-8.24 3.41zM426 243.48c17.955 4.375 38.208 16.602 55.66 34.055 15.155 15.167 26.577 32.538 32.12 48.918.595 1.75 1.12 3.477 1.562 5.168l65.684-65.683c3.43-3.43 3.488-11.667.163-21.513-4.352-12.868-14.022-27.417-26.518-39.912-26.647-26.646-54.426-33.4-61.438-26.367a11.67 11.67 0 0 1-4.807 2.905l-62.4 62.42z"/><path d="M374.62 326.8a11.64 11.64 0 0 1-8.249-3.418c-4.562-4.562-4.562-11.936 0-16.497l54.997-55.008c4.562-4.562 11.936-4.562 16.497 0 4.562 4.55 4.562 11.935 0 16.497l-54.997 55.008a11.64 11.64 0 0 1-8.25 3.42zm68.48 68.5c-2.987 0-5.974-1.144-8.25-3.42-4.562-4.562-4.562-11.935 0-16.496l55-55c4.562-4.562 11.935-4.562 16.497 0s4.562 11.936 0 16.497l-55 55.008a11.68 11.68 0 0 1-8.25 3.42zm-130.55 62.04c-2.987 0-5.973-1.144-8.26-3.418-4.55-4.562-4.55-11.946 0-16.497l52.278-52.243a11.67 11.67 0 0 1 16.509 0c4.55 4.562 4.55 11.946 0 16.497L320.8 453.922a11.62 11.62 0 0 1-8.25 3.42zm24 57.28c-23.124 0-46.83-10.185-64.785-28.15-16.077-16.088-25.958-36.575-27.813-57.7-.56-6.43 4.177-12.087 10.605-12.646 6.5-.537 12.075 4.177 12.635 10.593 1.376 15.68 8.867 31.033 21.082 43.248 15.155 15.167 35.315 23.042 54.005 21.023 6.347-.7 12.157 3.932 12.845 10.36.688 6.405-3.943 12.156-10.35 12.845-2.74.3-5.5.42-8.23.42zm-13.7 45.4c-31.757 0-63.28-13.207-87.337-37.264-24.698-24.7-38.255-57.972-37.193-91.245.2-6.44 5.787-11.9 12.03-11.28 6.44.2 11.5 5.588 11.293 12.028-.852 26.856 10.208 53.83 30.38 74.002 23.894 23.904 56.595 34.708 87.477 28.898 6.335-1.18 12.425 2.975 13.626 9.298 1.2 6.335-2.975 12.437-9.3 13.627-6.96 1.28-13.97 1.92-20.97 1.92zm62.23-322.3a11.64 11.64 0 0 1-8.25-3.418l-133.5-133.5c-2.182-2.182-3.418-5.157-3.418-8.248a11.64 11.64 0 0 1 3.418-8.249l80.9-80.908c4.562-4.562 11.935-4.562 16.497 0l133.5 133.5a11.66 11.66 0 0 1 3.419 8.249 11.64 11.64 0 0 1-3.419 8.248l-80.92 80.9c-2.27 2.27-5.25 3.42-8.24 3.42zm-117-145.17l117 117 64.412-64.412-117-117-64.42 64.4zM665.7 518.33c-3.104 0-6.066-1.225-8.248-3.418l-133.5-133.5c-4.562-4.562-4.562-11.935 0-16.496l80.908-80.908c4.562-4.562 11.936-4.562 16.497 0l133.5 133.5a11.64 11.64 0 0 1 3.418 8.249 11.62 11.62 0 0 1-3.418 8.248l-80.92 80.92a11.63 11.63 0 0 1-8.25 3.42zm-117-145.18l117 117 64.412-64.4-116.98-117-64.42 64.4z"/></svg>